<?xml version="1.0" encoding="utf-8"?>
<!-- Generator: Adobe Illustrator 19.1.0, SVG Export Plug-In . SVG Version: 6.00 Build 0)  -->
<svg version="1.1" id="Layer_1" xmlns="http://www.w3.org/2000/svg" xmlns:xlink="http://www.w3.org/1999/xlink" x="0px" y="0px"
	 viewBox="-285 96.6 388.5 369.4" style="enable-background:new -285 96.6 388.5 369.4;" xml:space="preserve">
<style type="text/css">
	.st0{fill:none;stroke:#000000;stroke-width:2;stroke-miterlimit:10;}
	.st1{enable-background:new    ;}
</style>
<polygon class="st0" points="-181.2,418 -260.8,280.3 -181.2,142.5 -22.2,142.5 57.4,280.3 -22.2,418 "/>
<polygon class="st0" points="36.1,359.8 -101.7,439.3 -239.5,359.8 -239.5,200.7 -101.7,121.2 36.1,200.7 "/>
<g class="st1">
	<path d="M-205.2,349.3h-2.6l53.5-58.3h2v58.5h-1.8v-55.2L-205.2,349.3z"/>
	<path d="M-123.1,291.3c2.1,0,4.1,0.4,6.1,1.1c2,0.7,3.8,1.7,5.4,2.8c2.4,1.6,4.2,3.5,5.7,5.6c1.4,2.2,2.4,4.4,3,6.8
		c0.6,2.4,0.7,4.9,0.5,7.3c-0.2,2.5-0.9,4.9-1.9,7.1c-1,2.3-2.4,4.3-4.2,6.2c-1.8,1.9-3.9,3.4-6.4,4.6c-1.3,0.7-2.8,1.2-4.4,1.6
		c-1.6,0.4-3.2,0.5-4.6,0.4v-2c4.1-0.3,7.7-1.4,10.8-3.4c3.1-2,5.5-4.9,7.3-8.7c0.8-1.5,1.2-3.1,1.4-4.8c0.2-1.7,0.2-3.4,0.1-5.1
		c-0.1-2-0.7-4.1-1.8-6.2c-1.1-2.1-2.4-4-4.1-5.7c-1.7-1.7-3.5-3.1-5.6-4.1c-2.1-1-4.1-1.6-6.1-1.6h-17.5v55.8h-2.1v-58H-123.1z"/>
	<path d="M-75.7,291.3c2.1,0,4.1,0.4,6.1,1.1s3.8,1.7,5.4,2.8c2.3,1.6,4.2,3.5,5.7,5.6c1.4,2.2,2.4,4.4,3,6.8
		c0.6,2.4,0.7,4.9,0.5,7.3c-0.2,2.5-0.9,4.9-1.9,7.1c-1,2.3-2.4,4.3-4.2,6.2c-1.8,1.9-3.9,3.4-6.4,4.6c-1.3,0.7-2.8,1.2-4.4,1.6
		c-1.6,0.4-3.2,0.5-4.6,0.4v-2c4.1-0.3,7.7-1.4,10.8-3.4c3.1-2,5.5-4.9,7.3-8.7c0.8-1.5,1.2-3.1,1.4-4.8c0.2-1.7,0.2-3.4,0.1-5.1
		c-0.1-2-0.7-4.1-1.8-6.2c-1.1-2.1-2.4-4-4.1-5.7c-1.7-1.7-3.5-3.1-5.6-4.1c-2.1-1-4.1-1.6-6.2-1.6h-17.5v55.8h-2.1v-58H-75.7z"/>
	<path d="M-32.5,349.3c-1.8-0.3-3.6-0.9-5.5-1.7c-1.9-0.8-3.6-1.9-5-3.2c-1.5-1.3-2.7-2.8-3.6-4.5c-0.9-1.7-1.3-3.6-1.2-5.8
		c0.3-0.1,0.6-0.2,0.9-0.2c0.3,0,0.6,0,0.9,0c0.3,2.3,1,4.4,2.2,6.3c1.2,1.9,2.8,3.4,4.9,4.6c2,1.1,4,1.8,6.2,2.3
		c2.2,0.4,4.3,0.5,6.4,0.1s4.2-1,6.2-2s3.7-2.4,5.2-4.1c1.1-1.3,1.9-2.7,2.2-4.3c0.3-1.6,0.4-3.2,0.3-4.8c0-0.9-0.3-1.8-0.8-2.7
		c-0.5-0.9-1-1.7-1.5-2.5c-1.4-2-3.3-3.5-5.7-4.6c-2.4-1.1-4.8-1.8-7.2-1.9c-2-0.2-3.8-0.4-5.5-0.6c-1.7-0.2-3.5-0.7-5.2-1.5
		c-2.1-0.9-4-2.3-5.6-4.1c-1.6-1.8-2.7-3.8-3.4-6.1c-0.5-1.9-0.6-3.7-0.3-5.5c0.3-1.7,0.9-3.4,1.8-5c0.7-1.3,1.5-2.4,2.6-3.4
		c1.1-1,2.2-1.8,3.5-2.5c2.1-1.1,4.5-1.9,7-2.4c2.5-0.4,5-0.5,7.5-0.2c2.5,0.3,4.8,1.1,7,2.3c2.2,1.2,4,2.9,5.5,5
		c0.8,1.1,1.5,2.3,2,3.7c0.5,1.4,0.7,2.8,0.6,4.2h-2c-0.1-2.5-0.7-4.7-2-6.6c-1.3-1.9-2.9-3.3-4.9-4.4c-2-1.1-4.2-1.8-6.6-2.2
		c-2.4-0.4-4.8-0.4-7.1,0c-2.3,0.4-4.5,1.2-6.5,2.4c-2,1.2-3.6,2.8-4.7,4.8c-1.2,2.1-1.8,4.2-1.6,6.2c0.1,2,0.7,3.9,1.6,5.6
		c1,1.7,2.3,3.2,4.1,4.4c1.7,1.3,3.6,2.2,5.7,2.8c1.3,0.3,2.5,0.5,3.7,0.6c1.2,0.1,2.5,0.1,3.8,0.2c2.3,0.2,4.5,0.7,6.6,1.7
		c2.1,1,4,2.2,5.6,3.8c1.6,1.6,2.8,3.4,3.5,5.6s1,4.4,0.6,6.9c-0.4,2.4-1.4,4.5-2.9,6.3c-1.5,1.8-3.3,3.3-5.4,4.4
		c-2.1,1.1-4.4,1.9-6.8,2.3C-28.1,349.7-30.4,349.7-32.5,349.3z"/>
</g>
<g class="st1">
	<path d="M-64.4,180.9l3.1,4.5l-0.2,0.9l-0.9-0.2l-2.1,7.9c-1.2,4.7,1.3,14.2,7.7,28.3c4.3,6.1,7.7,12.1,10.3,18.2
		c0.5,2,3.4,5.3,8.7,9.8c5.5,4.1,9.4,9.5,11.8,16.3l0,1.9l-0.6,0.3l-0.4-0.1c-3.6-7.1-8.9-12.5-16-16.4c0.2-0.6-2.4-3.3-7.8-8.1
		c-3.2-4.1-6.4-9.8-9.7-17.1c-1.4-0.4-3.7-4.4-6.7-12.1c-1.5-3.9-2.6-8.1-3.3-12.6l-0.5-0.1c-2.5,3.2-5.7,6.3-9.5,9.3
		c-6.1,6.2-10.6,9-13.5,8.3l-1.8-0.5l-4.7-1.7c-1.9-0.5-6,5.7-12.3,18.5c-1.2-0.3-6.9,8.6-17.3,26.6c-0.7-0.2-4,4.1-9.9,12.9
		c-4.7,6-8.2,8.7-10.6,8.1l-1.8-0.5c-1.7-0.4-3.2-6.2-4.4-17.2c0.4-1.7,0.5-3.9,0.3-6.5l0.6-0.3l0.1-2.3l0.7-2.7l1.7-0.9l0.2,2.9
		l-0.6,0.3l0.4,0.5l0.4,0.1c1.4-0.6,2.8-0.6,4.3-0.3l0.9,0.2l0.6,1.1l-0.1,0.4l-0.6,0.3l-0.1,0.4l-2.4-1.6l-0.5-0.1l0.2,4.8
		l-0.5-0.1l0.4,5.8l-0.6,0.3l-0.1,0.5c0,3.5,1.1,5.4,3.2,6l0.4,0.1c5-4.4,9.2-9.1,12.6-14.1c8.8-12.1,14.6-20.4,17.4-25.1
		c5.7-11,10.2-18.8,13.6-23.3c0.3-1.3,1.8-2.2,4.4-2.6c2.1,2.7,3.6,4.2,4.5,4.5l3.5,0.9c2.5-0.6,5.9-2.8,10.2-6.7l10.3-12.4
		l0.7-11.6C-69.7,181.3-67.7,180.1-64.4,180.9z"/>
</g>
</svg>
